<?xml version="1.0" encoding="utf-8"?>
<svg viewBox="49.138 146.104 239.751 115.544" xmlns="http://www.w3.org/2000/svg">
  <rect x="49.138" y="146.104" width="239.751" height="115.544" style="fill: none;"/>
  <path style="stroke: rgb(0, 0, 0); stroke-linejoin: round; fill: rgb(178, 251, 215); stroke-width: 2px;" d="M 147.286 159.905 C 131.539 170.686 121.36 190.96 107.83 204.276 C 111.632 205.543 116.347 215.936 118.818 219.156 C 126.906 229.691 135.445 240.543 144.887 249.985 C 144.88 248.986 152.026 249.476 152.605 249.476 C 161.034 249.476 169.42 249.761 177.847 249.761 C 210.174 249.761 242.586 249.296 274.851 249.296 C 275.217 250.024 275.559 250.765 275.948 251.481 C 276.457 252.419 275.397 249.393 275.397 248.325 C 275.397 246.342 275.274 244.315 275.397 242.338 C 275.854 234.991 276.185 227.772 276.185 220.385 C 276.185 200.085 276.185 179.785 276.185 159.485 C 263.595 156.9 248.621 159.467 235.894 159.467 C 208.254 159.467 172.06 159.905 147.286 159.905 Z"/>
  <ellipse style="stroke: rgb(0, 0, 0); fill: rgb(255, 255, 255); fill-rule: evenodd;" cx="135.863" cy="204.729" rx="12.639" ry="11.851"/>
  <path style="stroke: rgb(0, 0, 0); fill: none; stroke-width: 3px;" d="M 133.415 216.169 C 135.51 209.46 124.236 215.503 121.087 216.479 C 110.088 219.889 103.347 229.826 93.513 235.567 C 90.98 237.045 86.933 239.092 84.941 241.053"/>
  <path style="stroke: rgb(0, 0, 0); fill: none; stroke-width: 3px;" d="M 113.681 210.366 C 107.531 215.814 114.252 223.343 120.135 221.508"/>
  <path style="fill: none; stroke: rgb(0, 0, 0); stroke-width: 3px;" d="M 123.209 206.613 C 124.144 206.246 128.005 205.278 127.863 208.582 C 127.814 209.729 124.807 211.129 123.813 211.52 C 119.394 213.261 114.863 214.273 110.409 215.744 C 105.462 217.378 101.718 220.22 97.188 222.681 C 94.539 224.121 91.661 225.269 89.043 226.797 C 85.385 228.932 78.9 230.222 74.974 227.749 C 73.396 226.755 72.434 225.588 71.159 224.313"/>
  <path d="M 168.8276824951172 217.60133361816406 L 168.8276824951172 212.40699768066406 Q 171.7808074951172 214.33180236816406 175.0767059326172 215.10963439941406 Q 178.3726043701172 215.88746643066406 180.6665496826172 215.88746643066406 Q 184.3843231201172 215.88746643066406 186.0190887451172 214.68775939941406 Q 187.6538543701172 213.48805236816406 187.6538543701172 211.69508361816406 Q 187.6538543701172 210.50856018066406 186.8892059326172 209.66481018066406 Q 186.1245574951172 208.82106018066406 183.0923309326172 207.58180236816406 L 181.4048309326172 206.89625549316406 L 178.0034637451172 205.55152893066406 Q 172.5190887451172 203.41578674316406 171.0952606201172 201.59645080566406 Q 169.6450653076172 199.80348205566406 169.6450653076172 197.21949768066406 Q 169.6450653076172 193.58082580566406 172.4531707763672 191.23414611816406 Q 175.2612762451172 188.88746643066406 181.5630340576172 188.88746643066406 Q 186.2827606201172 188.88746643066406 190.5015106201172 190.25856018066406 L 190.5015106201172 194.71461486816406 Q 185.6499481201172 192.97438049316406 181.3784637451172 192.97438049316406 Q 178.2671356201172 192.97438049316406 176.5137176513672 194.06861877441406 Q 174.7602996826172 195.16285705566406 174.7602996826172 196.79762268066406 Q 174.7602996826172 198.37965393066406 176.2895965576172 199.32887268066406 Q 177.7925262451172 200.27809143066406 181.1938934326172 201.51734924316406 L 184.5161590576172 202.73023986816406 Q 189.0776824951172 204.39137268066406 190.9233856201172 206.34254455566406 Q 192.7690887451172 208.29371643066406 192.7690887451172 211.22047424316406 Q 192.7690887451172 215.04371643066406 189.8291473388672 217.50904846191406 Q 186.8892059326172 219.97438049316406 180.4292449951172 219.97438049316406 Q 174.7866668701172 219.97438049316406 168.8276824951172 217.60133361816406 Z M 220.55685424804688 212.53883361816406 Q 218.31564331054688 216.23023986816406 215.16476440429688 218.10231018066406 Q 212.01388549804688 219.97438049316406 209.37716674804688 219.97438049316406 Q 205.68576049804688 219.97438049316406 202.74581909179688 216.78395080566406 Q 199.80587768554688 213.59352111816406 199.80587768554688 207.10719299316406 Q 199.80587768554688 201.99195861816406 201.75704956054688 197.97096252441406 Q 203.70822143554688 193.94996643066406 206.97775268554688 191.61647033691406 Q 210.24728393554688 189.28297424316406 215.07247924804688 189.28297424316406 Q 216.46994018554688 189.28297424316406 219.29122924804688 189.57301330566406 Q 219.71310424804688 189.62574768066406 220.55685424804688 189.70484924316406 L 225.48751831054688 189.70484924316406 L 225.48751831054688 230.60035705566406 L 220.55685424804688 230.60035705566406 Z M 220.55685424804688 206.71168518066406 L 220.55685424804688 194.08180236816406 Q 217.94650268554688 193.39625549316406 215.70529174804688 193.39625549316406 Q 211.17013549804688 193.39625549316406 208.15109252929688 196.90309143066406 Q 205.13204956054688 200.40992736816406 205.13204956054688 206.44801330566406 Q 205.13204956054688 210.82496643066406 206.77999877929688 213.05299377441406 Q 208.42794799804688 215.28102111816406 210.53732299804688 215.28102111816406 Q 212.83126831054688 215.28102111816406 215.59982299804688 212.96070861816406 Q 218.36837768554688 210.64039611816406 220.55685424804688 206.71168518066406 Z M 241.1990966796875 219.15699768066406 L 241.1990966796875 180.71363830566406 L 232.3924560546875 180.71363830566406 L 232.3924560546875 176.60035705566406 L 246.1033935546875 176.60035705566406 L 246.1033935546875 215.07008361816406 L 255.3055419921875 215.07008361816406 L 255.3055419921875 219.15699768066406 Z" transform="matrix(1, 0, 0, 1, 0, 0)" style="fill: rgba(0, 0, 0, 0.86); white-space: pre;"/>
</svg>