<?xml version="1.0" encoding="utf-8"?>
<svg viewBox="0 0 500 500" xmlns="http://www.w3.org/2000/svg">
  <path style="stroke: rgb(0, 0, 0); stroke-linejoin: round; fill: rgb(178, 251, 215); stroke-width: 2px;" d="M 147.286 159.905 C 131.539 170.686 121.36 190.96 107.83 204.276 C 111.632 205.543 116.347 215.936 118.818 219.156 C 126.906 229.691 135.445 240.543 144.887 249.985 C 144.88 248.986 152.026 249.476 152.605 249.476 C 161.034 249.476 169.42 249.761 177.847 249.761 C 210.174 249.761 242.586 249.296 274.851 249.296 C 275.217 250.024 275.559 250.765 275.948 251.481 C 276.457 252.419 275.397 249.393 275.397 248.325 C 275.397 246.342 275.274 244.315 275.397 242.338 C 275.854 234.991 276.185 227.772 276.185 220.385 C 276.185 200.085 276.185 179.785 276.185 159.485 C 263.595 156.9 248.621 159.467 235.894 159.467 C 208.254 159.467 172.06 159.905 147.286 159.905 Z"/>
  <ellipse style="stroke: rgb(0, 0, 0); fill: rgb(255, 255, 255); fill-rule: evenodd;" cx="135.863" cy="204.729" rx="12.639" ry="11.851"/>
  <path style="stroke: rgb(0, 0, 0); fill: none; stroke-width: 2px;" d="M 133.016 215.616 C 131.971 211.468 122.923 214.717 119.774 215.693 C 108.775 219.103 100.9 229.873 91.066 235.614 C 88.533 237.092 84.486 239.139 82.494 241.1"/>
  <path style="stroke: rgb(0, 0, 0); fill: none; stroke-width: 2px;" d="M 113.681 210.366 C 107.531 215.814 114.614 220.717 119.958 220.717"/>
  <path style="fill: none; stroke: rgb(0, 0, 0); stroke-width: 2px;" d="M 124.423 208.484 C 125.085 208.189 128.231 207.888 127.474 209.379 C 126.954 210.403 124.807 211.129 123.813 211.52 C 119.394 213.261 114.863 214.273 110.409 215.744 C 105.462 217.378 101.718 220.22 97.188 222.681 C 94.539 224.121 91.661 225.269 89.043 226.797 C 85.385 228.932 78.9 230.222 74.974 227.749 C 73.396 226.755 72.434 225.588 71.159 224.313"/>
  <text style="fill: rgba(0, 0, 0, 0.86); font-family: Monaco; font-size: 54px; font-weight: 700; white-space: pre;" x="164.398" y="219.157">sql</text>
</svg>